<svg version="1.1" id="Layer_1" xmlns="http://www.w3.org/2000/svg" xmlns:xlink="http://www.w3.org/1999/xlink" x="0px" y="0px"
	 width="100%" viewBox="0 0 720 352" enable-background="new 0 0 720 352" xml:space="preserve">
<path fill="#000000" opacity="1.000000" stroke="none" 
	d="
M360.067688,262.936035 
	C341.358337,253.813370 323.209137,256.181000 305.192780,263.902557 
	C294.854095,268.333618 294.872833,268.375244 294.873810,256.901825 
	C294.874634,247.239944 294.872559,237.578079 294.872559,227.916199 
	C294.872559,217.874100 295.384918,219.558212 286.513123,218.390030 
	C270.877777,216.331284 259.077942,208.614731 251.733948,194.587769 
	C237.779922,167.935684 252.034927,138.395157 282.069885,131.976654 
	C286.313904,131.069702 287.564056,129.510818 287.931519,125.211723 
	C291.319275,85.574303 324.507690,70.573074 352.922089,73.391357 
	C369.759796,75.061394 384.642578,80.986153 393.812408,95.861206 
	C397.646698,102.081177 400.614777,103.373680 407.989410,102.297729 
	C440.240875,97.592323 469.915161,119.598190 474.711792,147.667572 
	C477.806946,165.779770 471.395477,181.048248 459.424713,194.330734 
	C454.049500,200.294907 448.015839,205.558228 441.167908,209.763504 
	C438.258118,211.550385 437.232361,213.707397 437.270172,217.101624 
	C437.435242,231.925705 437.352264,246.752792 437.314148,261.578644 
	C437.309540,263.373474 437.694336,265.240479 436.733887,267.068970 
	C433.999481,267.988190 432.022156,266.016449 429.879822,265.040100 
	C414.317932,257.947998 398.358002,254.356354 381.420807,259.358704 
	C378.247131,260.296051 374.971283,261.371063 372.214996,263.124908 
	C368.076904,265.758057 364.339630,266.212463 360.067688,262.936035 
M431.206146,115.275970 
	C424.117889,112.801796 416.791077,112.833908 409.457855,113.386063 
	C402.725616,113.892952 402.368256,114.468147 402.212982,121.246155 
	C402.019806,129.681061 400.950714,137.895966 395.325897,144.738617 
	C393.920563,146.448212 392.556793,148.346649 389.900085,148.475845 
	C389.271088,145.687164 390.561584,143.572205 391.087280,141.368179 
	C395.851868,121.393219 388.917084,101.399391 372.880707,91.849815 
	C357.306488,82.575455 340.707581,81.398285 324.058380,88.981789 
	C308.539246,96.050537 300.842010,108.762901 299.256989,125.505577 
	C298.932434,128.934082 299.912872,130.548386 303.612122,131.123947 
	C311.270050,132.315430 318.347748,135.251328 324.625916,139.900406 
	C326.713196,141.446106 328.764893,143.073242 329.185638,145.755066 
	C328.168884,146.713287 327.316498,146.430008 326.567413,146.151459 
	C314.403229,141.628357 301.758484,141.187653 289.088562,142.351440 
	C275.370148,143.611511 264.180695,149.507172 259.599518,163.347610 
	C253.011810,183.250046 265.473846,205.341080 289.415192,207.384109 
	C293.364502,207.721130 294.966675,206.803314 294.889374,202.730591 
	C294.747101,195.234772 294.922546,187.733429 294.883545,180.234818 
	C294.869293,177.496750 295.613525,175.550247 298.380341,174.308182 
	C319.429260,164.859039 340.715668,161.584412 362.609650,171.421951 
	C364.809906,172.410583 366.873291,172.808792 369.278015,171.695114 
	C390.876099,161.692535 412.049500,164.620834 433.036316,173.861481 
	C436.213989,175.260651 437.559875,177.195786 437.394592,180.733444 
	C437.133728,186.316086 437.325195,191.919861 437.325195,198.543930 
	C447.934784,191.623123 455.528137,183.474564 460.371246,173.002808 
	C466.056976,160.709015 465.678009,148.421082 458.885925,136.601959 
	C452.785889,125.987129 443.376770,119.417046 431.206146,115.275970 
M341.210144,245.787781 
	C347.469910,247.005234 353.729645,248.222687 359.847443,249.412537 
	C361.037170,247.204147 360.655396,245.335770 360.658264,243.542709 
	C360.687836,225.234924 360.500183,206.924423 360.784210,188.621063 
	C360.857147,183.921082 359.072906,181.715683 354.934143,180.254257 
	C339.575684,174.831100 324.537048,176.205444 309.580414,181.838318 
	C306.621216,182.952805 306.265594,185.075363 306.272675,187.768265 
	C306.323883,207.240997 306.290131,226.713959 306.324127,246.186768 
	C306.326599,247.603958 305.872467,249.235153 307.900482,250.636108 
	C318.140167,247.055634 329.011230,244.991119 341.210144,245.787781 
M372.076477,220.500000 
	C372.076477,230.214539 372.076477,239.929077 372.076477,250.371933 
	C381.416290,247.130783 389.968231,245.519348 398.884003,245.617371 
	C407.915802,245.716675 416.406860,248.656067 425.072998,250.342987 
	C425.462677,249.411804 425.816010,248.960358 425.817322,248.507904 
	C425.877075,227.714890 425.897552,206.921768 425.950439,186.128723 
	C425.956512,183.743088 424.638519,182.556473 422.584717,181.770615 
	C407.459290,175.983063 392.259583,174.873810 376.803101,180.589905 
	C373.313538,181.880417 371.904297,183.782745 371.980865,187.559799 
	C372.196625,198.202805 372.069061,208.852783 372.076477,220.500000 
z"/>
<path fill="#000000" opacity="1.000000" stroke="none" 
	d="
M319.631470,281.603149 
	C314.831329,283.240662 310.344849,284.557434 306.047302,286.331696 
	C301.015289,288.409180 301.200836,283.968689 299.688141,281.623810 
	C297.933411,278.903687 298.622375,277.185394 301.667053,275.878754 
	C321.629700,267.311676 341.775421,265.142426 362.174927,274.149384 
	C365.231842,275.499054 367.653595,275.376190 370.632629,274.049805 
	C391.083466,264.944214 411.211456,267.637909 431.165649,275.966370 
	C434.509186,277.361877 434.231537,279.390076 432.776001,281.870789 
	C431.312592,284.364990 431.056213,288.428894 426.218109,286.231689 
	C415.576447,281.398743 404.410919,279.286713 392.677094,280.039734 
	C384.516968,280.563354 377.008118,282.959747 369.963074,286.963043 
	C367.833405,288.173218 365.912445,288.925995 363.477325,287.461670 
	C349.868530,279.278107 335.210083,278.406616 319.631470,281.603149 
z"/>
<path fill="#000000" opacity="1.000000" stroke="none" 
	d="
M316.166199,214.232025 
	C326.768219,209.900818 337.168121,209.769455 347.664001,213.003159 
	C350.312622,213.819183 352.768555,214.867630 351.155334,219.198196 
	C339.403107,214.922699 327.588745,214.914291 316.077179,219.132675 
	C314.377747,217.309814 314.510834,215.877380 316.166199,214.232025 
z"/>
<path fill="#000000" opacity="1.000000" stroke="none" 
	d="
M348.972046,201.761887 
	C351.713013,202.955948 352.656403,204.527176 350.880402,207.537476 
	C339.258972,202.997330 327.404907,202.952148 315.706665,207.766281 
	C313.736206,203.562454 315.928619,202.451477 318.712952,201.511368 
	C328.702148,198.138657 338.654755,198.211700 348.972046,201.761887 
z"/>
<path fill="#000000" opacity="1.000000" stroke="none" 
	d="
M351.684509,227.353439 
	C352.035919,229.719009 351.498444,231.354248 349.138184,230.403503 
	C338.183807,225.990784 327.326508,226.957275 316.451599,230.615219 
	C316.208191,230.697083 315.846466,230.427277 315.439697,230.286911 
	C314.409912,228.472000 314.488647,226.856934 316.535706,225.741760 
	C324.466156,221.421478 345.922455,221.226135 351.684509,227.353439 
z"/>
<path fill="#000000" opacity="1.000000" stroke="none" 
	d="
M337.446320,192.534943 
	C329.608582,191.699112 322.611847,193.853424 315.676361,195.852112 
	C314.110260,193.068222 314.763855,191.311493 317.293213,190.384079 
	C327.829590,186.520889 338.442841,186.531921 349.020203,190.142227 
	C351.558929,191.008743 351.513641,191.353836 351.305634,195.549957 
	C346.798431,194.559097 342.339539,193.578873 337.446320,192.534943 
z"/>
<path fill="#000000" opacity="1.000000" stroke="none" 
	d="
M417.092041,218.429016 
	C412.477203,218.982101 408.718140,216.346725 404.357513,216.156937 
	C396.672882,215.822433 389.125854,216.108902 381.952423,219.269989 
	C380.015198,216.166199 380.796143,214.489700 383.548706,213.477600 
	C393.967041,209.646835 404.359314,209.945892 414.763916,213.585449 
	C417.071442,214.392639 417.951935,215.789398 417.092041,218.429016 
z"/>
<path fill="#000000" opacity="1.000000" stroke="none" 
	d="
M393.678680,199.451263 
	C401.043793,198.306244 407.698120,199.636719 414.259460,201.721588 
	C416.800812,202.529099 418.328064,203.943680 416.901825,207.519302 
	C405.209625,203.441116 393.360718,202.521744 381.709869,207.685440 
	C379.986694,204.508545 380.825195,202.781326 383.555237,201.805191 
	C386.697205,200.681778 389.877014,199.697830 393.678680,199.451263 
z"/>
<path fill="#000000" opacity="1.000000" stroke="none" 
	d="
M403.386414,227.579376 
	C395.587341,226.593155 388.609467,228.748795 381.673248,230.636581 
	C379.881683,227.473267 381.195618,225.884857 383.760773,225.009842 
	C394.177368,221.456558 404.595306,221.665833 414.911865,225.380157 
	C417.526245,226.321426 417.445282,226.546326 416.777130,230.601395 
	C412.450317,229.618851 408.133606,228.638596 403.386414,227.579376 
z"/>
<path fill="#000000" opacity="1.000000" stroke="none" 
	d="
M383.355927,190.202530 
	C393.682739,186.641342 403.655701,186.790863 413.671783,189.793915 
	C416.620270,190.677948 418.513977,191.994095 416.691254,195.967651 
	C405.140656,191.414551 393.444458,191.087769 381.780701,195.969803 
	C380.235565,193.290512 380.437897,191.546463 383.355927,190.202530 
z"/>
</svg>